<svg width="100" height="100" viewBox="0 0 100 100" fill="none" xmlns="http://www.w3.org/2000/svg">
<rect width="100" height="100" rx="36" fill="#82AB1B"/>
<path d="M13.4801 36.7246C14.9262 36.3085 16.4671 36.4681 17.7519 37.1715C19.0357 37.8752 19.97 39.0625 20.2864 40.489C20.7977 42.7526 21.271 44.7741 21.7869 46.8231C22.883 51.0963 23.9429 54.8677 25.3718 58.9174C25.8226 60.1877 26.2995 61.4433 26.801 62.6307C27.0772 60.5408 27.2547 58.3365 27.3871 56.133C27.546 53.4435 27.6355 50.7107 27.6914 47.9714C27.7199 46.5678 27.7374 45.2133 27.7549 43.8159C27.7595 43.4581 27.7638 43.121 27.7682 42.7939C27.7733 42.4083 27.7788 42.0485 27.7846 41.7174C27.79 41.4 27.7994 40.9366 27.8097 40.6141C27.8139 40.4764 27.8251 40.1606 27.8372 39.955C27.8446 39.8312 27.8483 39.7664 27.8646 39.5776C27.8773 39.4403 27.8909 39.2968 27.9268 39.0771C27.9873 38.8293 27.9436 38.6334 28.3644 37.7139C28.4029 37.6368 28.4475 37.5521 28.5009 37.4603C28.8461 36.7798 30.1786 35.2986 32.1597 35.2184C34.0761 35.1677 34.9907 36.0109 35.4358 36.3773C36.291 37.2115 36.3166 37.4868 36.4764 37.7401C36.5062 37.7981 36.5363 37.86 36.5547 37.8988C36.5612 37.9126 36.569 37.9266 36.5751 37.9397C36.5875 37.9663 36.5988 37.9928 36.6098 38.0173C36.6319 38.0667 36.6523 38.113 36.6706 38.1565C36.7431 38.3296 36.7967 38.4723 36.8483 38.616C36.8739 38.6876 36.8988 38.7605 36.9233 38.8324C36.944 38.893 36.9542 38.9242 36.9696 38.9705C36.9987 39.0582 37.0282 39.1486 37.0576 39.241C37.1155 39.4223 37.1799 39.6347 37.2367 39.8227C37.2834 39.9774 37.3327 40.1405 37.3827 40.3102C37.6037 41.0618 37.7597 41.6171 37.9657 42.3487C38.32 43.6162 38.6932 44.9754 39.0511 46.2625C39.7757 48.8672 40.5112 51.4562 41.3028 53.9938C42.0956 56.5268 42.9391 59.026 43.9232 61.3404C44.035 61.6014 44.1487 61.8578 44.2621 62.1079C44.579 60.4059 44.8003 58.4877 44.9491 56.5611C45.2757 52.2309 45.2724 48.2284 45.1458 43.7461C45.0731 41.641 44.9598 39.5559 44.8145 37.2356C44.7149 35.7744 45.3128 34.3884 46.3801 33.382C47.4484 32.376 48.9163 31.8314 50.4426 31.8674C51.9689 31.9036 53.4086 32.5174 54.4281 33.5728C55.4467 34.6285 55.9794 36.0406 55.8109 37.4956C55.5543 39.8664 55.3053 41.9989 55.055 44.1598C54.5351 48.7702 54.0569 52.8824 53.3735 57.5303C53.0284 59.8096 52.6403 62.1127 52.0909 64.3817C51.7608 65.7027 51.5112 66.6621 50.9027 68.1786C50.7596 68.5217 50.627 68.8168 50.4439 69.1758C50.2252 69.603 49.9825 70.0151 49.6967 70.416C49.5469 70.624 49.4216 70.7874 49.2092 71.0311C48.9756 71.2969 48.7138 71.5578 48.4133 71.8023C48.1132 72.0465 47.7734 72.2756 47.3943 72.4702C46.9802 72.686 46.4261 72.8868 45.8902 72.9814C44.4714 73.236 43.2585 72.8866 42.3711 72.4348C41.5199 71.9873 41.0676 71.5914 40.5713 71.1219C39.7688 70.3396 39.186 69.5157 38.7376 68.8366C37.7854 67.3657 37.139 66.0679 36.4846 64.6834C36.2504 64.1804 36.0259 63.678 35.807 63.1787C35.7162 63.9149 35.6132 64.657 35.4949 65.406C35.2341 66.9766 34.9687 68.4258 34.3761 70.2232C34.2288 70.6554 34.0691 71.0872 33.8259 71.6226C33.5775 72.1509 33.3743 72.576 32.8794 73.2816C32.6477 73.6042 32.3789 73.9299 32.0532 74.2508C31.7237 74.5794 31.1848 75.0204 30.5867 75.3342C29.4262 76.0099 27.522 76.2146 26.2114 75.7802C25.3643 75.5326 24.6749 75.1424 24.0993 74.7229C23.5898 74.3452 23.2948 74.0661 22.9464 73.7124C22.2121 72.9388 21.8934 72.4863 21.4538 71.8617C21.004 71.2035 20.7189 70.7296 20.4021 70.1838C20.104 69.671 19.7256 68.9584 19.5062 68.5308C18.4337 66.4327 17.532 64.3442 16.6712 62.2547C14.9156 57.9406 13.5155 54.1314 11.9682 49.8364C11.226 47.7841 10.5028 45.7757 9.71579 43.5309C9.22543 42.1542 9.38629 40.6515 10.0999 39.3728C10.8142 38.0942 12.0343 37.1408 13.4801 36.7246Z" fill="white"/>
<path d="M57.252 71.096C56.7 71.096 56.2 70.964 55.752 70.7C55.304 70.428 54.948 70.056 54.684 69.584C54.428 69.112 54.3 68.572 54.3 67.964C54.3 67.356 54.428 66.824 54.684 66.368C54.948 65.912 55.304 65.556 55.752 65.3C56.2 65.036 56.7 64.904 57.252 64.904C57.644 64.904 58.024 65.012 58.392 65.228C58.76 65.444 59.044 65.8 59.244 66.296V64.988H61.74V71H59.22V69.884C59.028 70.276 58.772 70.576 58.452 70.784C58.132 70.992 57.732 71.096 57.252 71.096ZM58.032 69.2C58.36 69.2 58.64 69.084 58.872 68.852C59.104 68.612 59.22 68.32 59.22 67.976C59.22 67.632 59.104 67.352 58.872 67.136C58.64 66.912 58.36 66.8 58.032 66.8C57.688 66.8 57.4 66.916 57.168 67.148C56.936 67.38 56.82 67.664 56.82 68C56.82 68.336 56.936 68.62 57.168 68.852C57.4 69.084 57.688 69.2 58.032 69.2ZM65.4758 71H62.9438V63.092L65.4758 62.72V66.836L68.2958 64.544L69.5918 66.212L67.8998 67.628C68.0118 68.196 68.1758 68.596 68.3918 68.828C68.6078 69.052 68.8878 69.164 69.2318 69.164C69.3758 69.164 69.5478 69.14 69.7478 69.092L69.5678 71.024C69.4158 71.056 69.2798 71.076 69.1598 71.084C69.0398 71.092 68.9238 71.096 68.8118 71.096C68.0198 71.096 67.3918 70.908 66.9278 70.532C66.4718 70.148 66.1358 69.588 65.9198 68.852L65.4758 69.236V71ZM72.9317 71.096C72.3797 71.096 71.8797 70.964 71.4317 70.7C70.9837 70.428 70.6277 70.056 70.3637 69.584C70.1077 69.112 69.9797 68.572 69.9797 67.964C69.9797 67.356 70.1077 66.824 70.3637 66.368C70.6277 65.912 70.9837 65.556 71.4317 65.3C71.8797 65.036 72.3797 64.904 72.9317 64.904C73.3237 64.904 73.7037 65.012 74.0717 65.228C74.4397 65.444 74.7237 65.8 74.9237 66.296V64.988H77.4197V71H74.8997V69.884C74.7077 70.276 74.4517 70.576 74.1317 70.784C73.8117 70.992 73.4117 71.096 72.9317 71.096ZM73.7117 69.2C74.0397 69.2 74.3197 69.084 74.5517 68.852C74.7837 68.612 74.8997 68.32 74.8997 67.976C74.8997 67.632 74.7837 67.352 74.5517 67.136C74.3197 66.912 74.0397 66.8 73.7117 66.8C73.3677 66.8 73.0797 66.916 72.8477 67.148C72.6157 67.38 72.4997 67.664 72.4997 68C72.4997 68.336 72.6157 68.62 72.8477 68.852C73.0797 69.084 73.3677 69.2 73.7117 69.2Z" fill="white"/>
</svg>
