<?xml version="1.0" encoding="UTF-8"?><svg xmlns="http://www.w3.org/2000/svg" viewBox="0 0 1000 1000" x="0px" y="0px" width="1000px" height="1000px" version="1.1" xmlns:xlink="http://www.w3.org/1999/xlink"><g style="isolation:isolate"><g id="Layer_1" data-name="Layer 1"><g opacity="0.15"><path d="M236.9,429.6h-79.35a3,3,0,0,1,0-6H233.9v-32.68h-76.35a3,3,0,0,1,0-6H236.9a3,3,0,0,1,3,3V426.6A3,3,0,0,1,236.9,429.6Z" fill="#474747"/><path d="M316.245,429.6H236.9a3,3,0,0,1,0-6h79.349a3,3,0,0,1,0,6Z" fill="#474747"/><path d="M267.279,390.924H236.9a3,3,0,1,1,0-6h30.383a3,3,0,0,1,0,6Z" fill="#474747"/><path d="M276.57,468.285H197.221a3,3,0,0,1-3-3V426.6a3,3,0,0,1,3-3H276.57a3,3,0,0,1,3,3v38.681A3,3,0,0,1,276.57,468.285Zm-76.349-6H273.57V429.6H200.221Z" fill="#474747"/><path d="M236.9,507.151H211.221a3,3,0,0,1,0-6H233.9v-32.68H169.888a3,3,0,0,1,0-6H236.9a3,3,0,0,1,3,3v38.68A3,3,0,0,1,236.9,507.151Z" fill="#474747"/><path d="M316.245,507.151H236.9a3,3,0,0,1-3-3v-38.68a3,3,0,0,1,3-3h79.349a3,3,0,0,1,3,3v38.68A3,3,0,0,1,316.245,507.151Zm-76.349-6h73.349v-32.68H239.9Z" fill="#474747"/><path d="M659.884,569.646h-79.35a3,3,0,1,1,0-6h76.35V530.965h-76.35a3,3,0,0,1,0-6h79.35a3,3,0,0,1,3,3v38.681A3,3,0,0,1,659.884,569.646Z" fill="#474747"/><path d="M739.232,569.646H659.884a3,3,0,0,1,0-6h79.348a3,3,0,0,1,0,6Z" fill="#474747"/><path d="M690.267,530.965H659.884a3,3,0,0,1,0-6h30.383a3,3,0,0,1,0,6Z" fill="#474747"/><path d="M699.558,608.326H620.209a3,3,0,0,1-3-3v-38.68a3,3,0,0,1,3-3h79.349a3,3,0,0,1,3,3v38.68A3,3,0,0,1,699.558,608.326Zm-76.349-6h73.349v-32.68H623.209Z" fill="#474747"/><path d="M659.884,647.193H634.209a3,3,0,0,1,0-6h22.675v-32.68H592.875a3,3,0,0,1,0-6h67.009a3,3,0,0,1,3,3v38.68A3,3,0,0,1,659.884,647.193Z" fill="#474747"/><path d="M711.018,647.193H659.884a3,3,0,0,1-3-3v-38.68a3,3,0,0,1,3-3h66.067a3,3,0,0,1,0,6H662.884v32.68h48.134a3,3,0,0,1,0,6Z" fill="#474747"/><path d="M444.941,345.785H321.8a3,3,0,0,1-3-3V242.963a3,3,0,0,1,3-3H444.941a3,3,0,0,1,3,3v99.822A3,3,0,0,1,444.941,345.785Zm-120.142-6H441.941V245.963H324.8Z" fill="#474747"/><path d="M338.782,322.669a3,3,0,0,1-2.466-4.7L358.878,285.3a3,3,0,0,1,4.8-.179l23.333,28.917a3,3,0,0,1-4.669,3.767l-20.812-25.791-20.281,29.363A2.994,2.994,0,0,1,338.782,322.669Z" fill="#474747"/><path d="M429.939,322.669a3,3,0,0,1-2.688-1.664l-20.511-41.24L378.207,307.46a3,3,0,1,1-4.179-4.306l31.48-30.555a3,3,0,0,1,4.775.817l22.34,44.917a3,3,0,0,1-2.684,4.336Z" fill="#474747"/><path d="M367.894,298.124a3,3,0,0,1-2.85-3.941,14.838,14.838,0,0,1,26.822-2.96,3,3,0,0,1-5.148,3.083,8.837,8.837,0,0,0-15.976,1.757A3,3,0,0,1,367.894,298.124Z" fill="#474747"/><path d="M765.021,413.2H589.881a14.708,14.708,0,1,1,0-29.415h175.14a14.708,14.708,0,1,1,0,29.415ZM589.881,389.78a8.708,8.708,0,1,0,0,17.415h175.14a8.708,8.708,0,1,0,0-17.415Z" fill="#474747"/><path d="M704.819,389.78H653.537a3,3,0,0,1-2.961-2.517l-10.667-65.439a3,3,0,0,1,2.961-3.483h72.616a3,3,0,0,1,2.961,3.483L707.78,387.263A3,3,0,0,1,704.819,389.78Zm-48.731-6h46.181l9.689-59.439H646.4Z" fill="#474747"/><path d="M725.486,324.341H633.18a3,3,0,0,1-3-3v-19a3,3,0,0,1,3-3h92.306a3,3,0,0,1,3,3v19A3,3,0,0,1,725.486,324.341Zm-89.306-6h86.306v-13H636.18Z" fill="#474747"/><path d="M691.058,305.339h-18.94a3,3,0,0,1-2.886-2.18c-5.136-18.085-9.81-37.458-9.237-56.588,0-.045,0-.089.008-.133.806-10.8,12.261-19.182,21.58-19.182h.013c9.315,0,20.769,8.376,21.577,19.181,0,.044.006.089.008.134.573,19.13-4.1,38.5-9.238,56.588A3,3,0,0,1,691.058,305.339Zm-16.669-6h14.4c4.749-16.966,8.911-34.977,8.4-52.517-.5-6.162-7.543-13.566-15.591-13.566h-.011c-8.052,0-15.09,7.4-15.594,13.566C665.478,264.362,669.64,282.373,674.389,299.339Z" fill="#474747"/><path d="M700.951,255.973a3,3,0,0,1-1.9-5.322l24.575-20.111a4.869,4.869,0,1,0-7.25-6.287l-13.118,21.7a3,3,0,1,1-5.135-3.1l13.118-21.7a10.869,10.869,0,1,1,16.186,14.035l-24.575,20.11A2.993,2.993,0,0,1,700.951,255.973Z" fill="#474747"/><path d="M714,225.47a3,3,0,0,1-2.854-2.081l-6.249-19.4a8.049,8.049,0,1,1,15.708-2.231l-.464,15.675a3,3,0,0,1-3.088,2.91,3.068,3.068,0,0,1-.61-.08l.414,1.281A3,3,0,0,1,714,225.47Zm-1.428-25.994a2.132,2.132,0,0,0-.3.021,2.049,2.049,0,0,0-1.663,2.657l3.648,11.321.352-11.889a2.051,2.051,0,0,0-2.035-2.11Z" fill="#474747"/></g><rect x="390.162" y="407.385" width="301.11" height="145.343" transform="translate(1209.185 204.412) rotate(115.992)" fill="#77ba85"/><path d="M540.057,650.232a2.978,2.978,0,0,1-1.313-.3L408.1,586.232a3,3,0,0,1-1.382-4.01L538.68,311.566a3,3,0,0,1,4.01-1.381L673.333,373.88a3,3,0,0,1,1.382,4.012L542.755,648.546A3,3,0,0,1,540.057,650.232Zm-126.63-68.078,125.25,61.066,129.33-265.261L542.758,316.893Z" fill="#474747"/><path d="M620.269,369.9,578.507,349.54A32.763,32.763,0,0,1,534.7,364.631L431.718,575.854l100.658,49.077L635.36,413.708A32.763,32.763,0,0,1,620.269,369.9Z" fill="#f6f9ea"/><path d="M532.376,627.931a2.991,2.991,0,0,1-1.314-.3L430.4,578.55a3,3,0,0,1-1.382-4.011L532.005,363.316a3,3,0,0,1,4.011-1.382,29.8,29.8,0,0,0,39.8-13.709,3,3,0,0,1,4.01-1.382l41.763,20.362a3,3,0,0,1,1.382,4.012,29.762,29.762,0,0,0,13.709,39.794,3,3,0,0,1,1.382,4.011L535.072,626.245a3,3,0,0,1-1.718,1.523A3.045,3.045,0,0,1,532.376,627.931Zm-96.647-53.459,95.265,46.447L631.4,414.979a35.774,35.774,0,0,1-15.034-43.641L579.776,353.5a35.821,35.821,0,0,1-43.638,15.033Z" fill="#474747"/><path d="M532.376,627.931a2.991,2.991,0,0,1-1.314-.3L430.4,578.55a3,3,0,0,1-1.382-4.011L546.362,333.868a3,3,0,0,1,4.011-1.382l100.659,49.077a3,3,0,0,1,1.382,4.012L535.072,626.245a3,3,0,0,1-1.718,1.523A3.045,3.045,0,0,1,532.376,627.931Zm-96.647-53.459,95.265,46.447L645.706,385.642,550.44,339.194Z" fill="#474747"/><circle cx="550.7" cy="458.956" r="34.313" fill="#77ba85"/><path d="M550.64,496.266a37.311,37.311,0,1,1,33.6-20.958A37.09,37.09,0,0,1,550.64,496.266Zm.086-68.639a31.344,31.344,0,1,0,13.7,3.184A31.346,31.346,0,0,0,550.726,427.627Z" fill="#474747"/><rect x="457.139" y="435.991" width="301.11" height="145.343" transform="translate(1400.136 516.725) rotate(140.652)" fill="#97cd78"/><path d="M537.345,663.315a3,3,0,0,1-2.323-1.1l-92.15-112.4a3,3,0,0,1,.418-4.222L676.142,354.689a3,3,0,0,1,4.222.418l92.152,112.4a3,3,0,0,1-.418,4.222L539.245,662.636A2.986,2.986,0,0,1,537.345,663.315ZM449.414,548.338l88.347,107.756L765.974,468.987,677.626,361.231Z" fill="#474747"/><path d="M725.951,441.747l-29.458-35.93a32.762,32.762,0,0,1-46.107-4.563L468.665,550.244l71,86.6,181.722-148.99A32.762,32.762,0,0,1,725.951,441.747Z" fill="#f6f9ea"/><path d="M539.666,639.844a2.934,2.934,0,0,1-.3-.015,3,3,0,0,1-2.024-1.083l-71-86.6a3,3,0,0,1,.418-4.222l181.721-148.99a3,3,0,0,1,4.223.418,29.761,29.761,0,0,0,41.884,4.145,3,3,0,0,1,4.222.418l29.458,35.93a3,3,0,0,1-.417,4.221,29.8,29.8,0,0,0-4.146,41.886,3,3,0,0,1-.418,4.221L541.568,639.164A3.005,3.005,0,0,1,539.666,639.844Zm-66.779-89.182,67.2,81.96L717.262,487.356a35.818,35.818,0,0,1,4.547-45.931L696,409.944a35.774,35.774,0,0,1-45.933-4.546Z" fill="#474747"/><path d="M539.666,639.844a2.934,2.934,0,0,1-.3-.015,3,3,0,0,1-2.024-1.083l-71-86.6a3,3,0,0,1,.418-4.222L673.819,378.162a3,3,0,0,1,4.223.418l71,86.6a3,3,0,0,1-.418,4.222L541.568,639.164A3.005,3.005,0,0,1,539.666,639.844Zm-66.779-89.182,67.2,81.96L742.5,466.664,675.3,384.7Z" fill="#474747"/><circle cx="625.57" cy="493.651" r="34.313" fill="#97cd78"/><path d="M625.638,530.969c-1.242,0-2.492-.062-3.743-.186a37.188,37.188,0,1,1,3.743.186Zm-.1-68.617a31.306,31.306,0,1,0,19.882,55.513h0a31.3,31.3,0,0,0-19.882-55.513Z" fill="#474747"/><path d="M629.416,457.724a69.7,69.7,0,0,0-17.637-46.385L445.192,547.92l92.151,112.4,92.073-75.489Z" fill="#474747" stroke="#474747" stroke-linecap="round" stroke-linejoin="round" stroke-width="6" opacity="0.32"/><g opacity="0.15"><path d="M831,751.724H169a3,3,0,0,1,0-6H831a3,3,0,0,1,0,6Z" fill="#474747"/></g><rect x="289.416" y="392.723" width="330" height="356" rx="60" fill="#f58870"/><rect x="289.416" y="392.723" width="330" height="356" rx="60" fill="#f58870"/><path d="M559.416,736.6h-210a60,60,0,0,1-60-60v12.119a60,60,0,0,0,60,60h210a60,60,0,0,0,60-60V676.6A60,60,0,0,1,559.416,736.6Z" fill="#dd7868"/><path d="M559.416,392.723h-210c-33.137,0-60,24.683-60,55.13v12.863c0-30.447,26.863-55.129,60-55.129h210c33.137,0,60,24.682,60,55.129V447.853C619.416,417.406,592.553,392.723,559.416,392.723Z" fill="#ffa399"/><path d="M435.416,392.723h72a0,0,0,0,1,0,0V521.2a18,18,0,0,1-18,18h-54a18,18,0,0,1-18-18V410.723A18,18,0,0,1,435.416,392.723Z" fill="#474747" stroke="#474747" stroke-linecap="round" stroke-linejoin="round" stroke-width="6" opacity="0.3"/><path d="M559.416,751.724h-210a63.072,63.072,0,0,1-63-63v-236a63.071,63.071,0,0,1,63-63h210a63.071,63.071,0,0,1,63,63v236A63.072,63.072,0,0,1,559.416,751.724Zm-210-356a57.064,57.064,0,0,0-57,57v236a57.065,57.065,0,0,0,57,57h210a57.065,57.065,0,0,0,57-57v-236a57.064,57.064,0,0,0-57-57Z" fill="#474747"/><g opacity="0.46" style="mix-blend-mode:multiply"><path d="M553.058,727.2H539.1a2,2,0,0,1,0-4h13.958a2,2,0,0,1,0,4Zm-23.928,0H515.172a2,2,0,0,1,0-4H529.13a2,2,0,0,1,0,4Zm-23.928,0H491.245a2,2,0,0,1,0-4H505.2a2,2,0,0,1,0,4Zm-23.927,0H467.317a2,2,0,0,1,0-4h13.958a2,2,0,0,1,0,4Zm-23.927,0H443.39a2,2,0,0,1,0-4h13.958a2,2,0,1,1,0,4Zm-23.928,0H419.462a2,2,0,0,1,0-4H433.42a2,2,0,0,1,0,4Zm-23.927,0H395.535a2,2,0,1,1,0-4h13.958a2,2,0,1,1,0,4Zm-23.928,0H371.607a2,2,0,0,1,0-4h13.958a2,2,0,0,1,0,4Zm-23.927,0H349.416q-.918,0-1.827-.041a2,2,0,0,1,.184-4c.544.026,1.092.037,1.643.037h12.222a2,2,0,1,1,0,4Zm201.382-.169a2,2,0,0,1-.186-3.991,35.683,35.683,0,0,0,12.635-3.607,2,2,0,0,1,1.787,3.578,39.633,39.633,0,0,1-14.047,4.012C563.146,727.025,563.082,727.028,563.02,727.028ZM337.9,725.421a1.994,1.994,0,0,1-.605-.1,39.724,39.724,0,0,1-12.876-6.9,2,2,0,1,1,2.5-3.121,35.776,35.776,0,0,0,11.585,6.212,2,2,0,0,1-.605,3.907Zm246.7-7.763a2,2,0,0,1-1.327-3.5,36.038,36.038,0,0,0,8.1-10.362,2,2,0,1,1,3.547,1.847,39.986,39.986,0,0,1-8.993,11.509A2,2,0,0,1,584.6,717.658Zm-265.811-5.967a2,2,0,0,1-1.613-.814,39.739,39.739,0,0,1-6.358-13.152,2,2,0,0,1,3.86-1.051,35.731,35.731,0,0,0,5.72,11.832,2,2,0,0,1-1.609,3.185Zm277.748-14.313a2,2,0,0,1-1.955-2.429,36.225,36.225,0,0,0,.836-7.752v-5.71a2,2,0,0,1,4,0v5.71a40.16,40.16,0,0,1-.93,8.61A2,2,0,0,1,596.535,697.378ZM311.417,689.35a2,2,0,0,1-2-2V673.239a2,2,0,0,1,4,0V687.35A2,2,0,0,1,311.417,689.35Zm286-15.832a2,2,0,0,1-2-2V657.56a2,2,0,0,1,4,0v13.958A2,2,0,0,1,597.416,673.518Zm-286-8.248a2,2,0,0,1-2-2V649.312a2,2,0,0,1,4,0V663.27A2,2,0,0,1,311.416,665.27Zm286-15.68a2,2,0,0,1-2-2V633.632a2,2,0,0,1,4,0V647.59A2,2,0,0,1,597.416,649.59Zm-286-8.248a2,2,0,0,1-2-2V625.385a2,2,0,0,1,4,0v13.957A2,2,0,0,1,311.416,641.342Zm286-15.68a2,2,0,0,1-2-2V609.7a2,2,0,0,1,4,0v13.958A2,2,0,0,1,597.416,625.662Zm-286-8.247a2,2,0,0,1-2-2V601.457a2,2,0,0,1,4,0v13.958A2,2,0,0,1,311.416,617.415Zm286-15.681a2,2,0,0,1-2-2V585.777a2,2,0,0,1,4,0v13.957A2,2,0,0,1,597.416,601.734Zm-286-8.247a2,2,0,0,1-2-2V577.529a2,2,0,0,1,4,0v13.958A2,2,0,0,1,311.416,593.487Zm286-15.679a2,2,0,0,1-2-2V561.85a2,2,0,0,1,4,0v13.958A2,2,0,0,1,597.416,577.808Zm-286-8.248a2,2,0,0,1-2-2V553.6a2,2,0,0,1,4,0V567.56A2,2,0,0,1,311.416,569.56Zm286-15.68a2,2,0,0,1-2-2V537.922a2,2,0,0,1,4,0V551.88A2,2,0,0,1,597.416,553.88Zm-286-8.248a2,2,0,0,1-2-2V529.675a2,2,0,0,1,4,0v13.957A2,2,0,0,1,311.416,545.632Zm286-15.68a2,2,0,0,1-2-2V513.994a2,2,0,0,1,4,0v13.958A2,2,0,0,1,597.416,529.952Zm-286-8.247a2,2,0,0,1-2-2V505.747a2,2,0,0,1,4,0v13.958A2,2,0,0,1,311.416,521.705Zm286-15.681a2,2,0,0,1-2-2V490.067a2,2,0,0,1,4,0v13.957A2,2,0,0,1,597.416,506.024Zm-286-8.247a2,2,0,0,1-2-2V481.819a2,2,0,0,1,4,0v13.958A2,2,0,0,1,311.416,497.777Zm286-15.68a2,2,0,0,1-2-2V466.14a2,2,0,0,1,4,0V480.1A2,2,0,0,1,597.416,482.1Zm-286-8.247a2,2,0,0,1-2-2V457.892a2,2,0,0,1,4,0V471.85A2,2,0,0,1,311.416,473.85Zm286-15.681a2,2,0,0,1-2-2V454.25a36,36,0,0,0-1.779-11.213,2,2,0,1,1,3.8-1.245,39.98,39.98,0,0,1,1.978,12.458v1.919A2,2,0,0,1,597.416,458.169Zm-285.478-8.215a1.967,1.967,0,0,1-.332-.028,2,2,0,0,1-1.644-2.3,39.632,39.632,0,0,1,5.01-13.726,2,2,0,0,1,3.443,2.039,35.632,35.632,0,0,0-4.507,12.345A2,2,0,0,1,311.938,449.954Zm279.292-14.5a2,2,0,0,1-1.674-.9,36.079,36.079,0,0,0-9.084-9.509,2,2,0,1,1,2.341-3.242,39.985,39.985,0,0,1,10.088,10.56,2,2,0,0,1-1.671,3.1Zm-268.4-6.36a2,2,0,0,1-1.4-3.429,39.89,39.89,0,0,1,12.12-8.148,2,2,0,0,1,1.588,3.67,35.932,35.932,0,0,0-10.909,7.336A2,2,0,0,1,322.831,429.1Zm250.062-8.389a2,2,0,0,1-.709-.13,35.863,35.863,0,0,0-12.768-2.329h-.184a2,2,0,0,1,0-4h.184a39.872,39.872,0,0,1,14.186,2.588,2,2,0,0,1-.709,3.871ZM343.9,418.647a2,2,0,0,1-.285-3.98,40.619,40.619,0,0,1,5.8-.417h8.427a2,2,0,1,1,0,4h-8.427a36.512,36.512,0,0,0-5.223.375A1.9,1.9,0,0,1,343.9,418.647Zm205.36-.4H535.3a2,2,0,0,1,0-4h13.958a2,2,0,0,1,0,4Zm-23.928,0H511.378a2,2,0,1,1,0-4h13.957a2,2,0,0,1,0,4Zm-23.928,0H487.45a2,2,0,0,1,0-4h13.957a2,2,0,0,1,0,4Zm-23.927,0H463.522a2,2,0,1,1,0-4H477.48a2,2,0,0,1,0,4Zm-23.927,0H439.6a2,2,0,0,1,0-4h13.958a2,2,0,0,1,0,4Zm-23.928,0H415.667a2,2,0,1,1,0-4h13.958a2,2,0,0,1,0,4Zm-23.927,0H391.74a2,2,0,0,1,0-4H405.7a2,2,0,0,1,0,4Zm-23.928,0H367.812a2,2,0,0,1,0-4H381.77a2,2,0,0,1,0,4Z" fill="#474747"/></g><rect x="409.416" y="370.199" width="90" height="158" rx="18" fill="#f79765"/><path d="M481.416,519.866h-54a18,18,0,0,1-18-18V510.2a18,18,0,0,0,18,18h54a18,18,0,0,0,18-18v-8.333A18,18,0,0,1,481.416,519.866Z" fill="#e27444"/><path d="M481.416,370.2h-54a18,18,0,0,0-18,18V395a18,18,0,0,1,18-18h54a18,18,0,0,1,18,18v-6.8A18,18,0,0,0,481.416,370.2Z" fill="#ffb797"/><path d="M481.416,531.2h-54a21.024,21.024,0,0,1-21-21v-122a21.024,21.024,0,0,1,21-21h54a21.024,21.024,0,0,1,21,21v122A21.024,21.024,0,0,1,481.416,531.2Zm-54-158a15.017,15.017,0,0,0-15,15v122a15.016,15.016,0,0,0,15,15h54a15.016,15.016,0,0,0,15-15v-122a15.017,15.017,0,0,0-15-15Z" fill="#474747"/><circle cx="457.416" cy="479.25" r="23.25" fill="#474747" stroke="#474747" stroke-linecap="round" stroke-linejoin="round" stroke-width="6" opacity="0.3"/><g opacity="0.46" style="mix-blend-mode:multiply"><path d="M470.779,518.2h-9.84a2,2,0,1,1,0-4h9.84a2,2,0,0,1,0,4Zm-21.647,0h-9.839a2,2,0,0,1,0-4h9.839a2,2,0,0,1,0,4Zm-21.646,0h-.07a8.009,8.009,0,0,1-8-8v-.413a2,2,0,0,1,4,0v.413a4,4,0,0,0,4,4,2.03,2.03,0,0,1,2.035,2A1.97,1.97,0,0,1,427.486,518.2Zm55.09-.113a2,2,0,0,1-.384-3.962,4.008,4.008,0,0,0,3.224-3.925v-1.583a2,2,0,0,1,4,0V510.2a8.014,8.014,0,0,1-6.452,7.849A1.977,1.977,0,0,1,482.576,518.086Zm-61.16-18.107a2,2,0,0,1-2-2V488.14a2,2,0,0,1,4,0v9.839A2,2,0,0,1,421.416,499.979Zm66-1.17a2,2,0,0,1-2-2V486.97a2,2,0,0,1,4,0v9.839A2,2,0,0,1,487.416,498.809Zm-66-20.476a2,2,0,0,1-2-2v-9.839a2,2,0,0,1,4,0v9.839A2,2,0,0,1,421.416,478.333Zm66-1.17a2,2,0,0,1-2-2v-9.84a2,2,0,0,1,4,0v9.84A2,2,0,0,1,487.416,477.163Zm-66-20.476a2,2,0,0,1-2-2v-9.84a2,2,0,0,1,4,0v9.84A2,2,0,0,1,421.416,456.687Zm66-1.171a2,2,0,0,1-2-2v-9.839a2,2,0,0,1,4,0v9.839A2,2,0,0,1,487.416,455.516Zm-66-20.476a2,2,0,0,1-2-2V423.2a2,2,0,0,1,4,0v9.839A2,2,0,0,1,421.416,435.04Zm66-1.17a2,2,0,0,1-2-2v-9.839a2,2,0,0,1,4,0v9.839A2,2,0,0,1,487.416,433.87Zm-66-20.476a2,2,0,0,1-2-2v-9.84a2,2,0,0,1,4,0v9.84A2,2,0,0,1,421.416,413.394Zm66-1.17a2,2,0,0,1-2-2v-9.84a2,2,0,0,1,4,0v9.84A2,2,0,0,1,487.416,412.224Zm-66-20.477a2,2,0,0,1-2-2V388.2a8.007,8.007,0,0,1,6.5-7.858,2,2,0,0,1,.75,3.929,4,4,0,0,0-3.247,3.929v1.548A2,2,0,0,1,421.416,391.747Zm66-1.17a2,2,0,0,1-2-2V388.2a4,4,0,0,0-4-4,2.016,2.016,0,0,1-2.018-2,1.986,1.986,0,0,1,1.983-2h.035a8.009,8.009,0,0,1,8,8v.378A2,2,0,0,1,487.416,390.577ZM469.574,384.2h-9.84a2,2,0,0,1,0-4h9.84a2,2,0,0,1,0,4Zm-21.647,0h-9.839a2,2,0,0,1,0-4h9.839a2,2,0,0,1,0,4Z" fill="#474747"/></g><circle cx="454.416" cy="473.25" r="23.25" fill="#8f6d5d"/><path d="M454.416,499.5a26.25,26.25,0,1,1,26.25-26.25A26.28,26.28,0,0,1,454.416,499.5Zm0-46.5a20.25,20.25,0,1,0,20.25,20.25A20.273,20.273,0,0,0,454.416,453Z" fill="#474747"/><g opacity="0.6"><path d="M464.22,461.33c.845,3.781-3.672,6.207-10.33,7.58-6.668,1.318-12.657,1.541-13.478-1.662-.846-3.147,3.672-8.986,10.329-10.881C457.409,454.417,463.4,457.607,464.22,461.33Z" fill="#fffcee"/></g><rect x="711.018" y="729.333" width="84.559" height="19.39" rx="7.267" fill="#fdb740"/><path d="M788.31,731.333H718.286a7.268,7.268,0,0,0-7.268,7.268v2.833a7.267,7.267,0,0,1,7.268-7.267H788.31a7.267,7.267,0,0,1,7.268,7.267V738.6A7.268,7.268,0,0,0,788.31,731.333Z" fill="#fff3c0" opacity="0.88"/><path d="M788.31,746.534H718.286a7.267,7.267,0,0,1-7.268-7.267v-2.833a7.268,7.268,0,0,0,7.268,7.267H788.31a7.268,7.268,0,0,0,7.268-7.267v2.833A7.267,7.267,0,0,1,788.31,746.534Z" fill="#f29e25"/><path d="M788.311,751.724H718.285a10.279,10.279,0,0,1-10.266-10.268V736.6a10.278,10.278,0,0,1,10.266-10.268h70.026A10.278,10.278,0,0,1,798.577,736.6v4.855A10.279,10.279,0,0,1,788.311,751.724Zm-70.026-19.391a4.272,4.272,0,0,0-4.266,4.268v4.855a4.272,4.272,0,0,0,4.266,4.268h70.026a4.272,4.272,0,0,0,4.266-4.268V736.6a4.272,4.272,0,0,0-4.266-4.268Z" fill="#474747"/><rect x="722.672" y="709.943" width="84.559" height="19.39" rx="7.267" fill="#fdb740"/><path d="M799.964,711.943H729.939a7.267,7.267,0,0,0-7.267,7.267v2.834a7.266,7.266,0,0,1,7.267-7.267h70.025a7.267,7.267,0,0,1,7.267,7.267V719.21A7.268,7.268,0,0,0,799.964,711.943Z" fill="#fff3c0" opacity="0.88"/><path d="M799.964,727.144H729.939a7.266,7.266,0,0,1-7.267-7.267v-2.833a7.267,7.267,0,0,0,7.267,7.267h70.025a7.268,7.268,0,0,0,7.267-7.267v2.833A7.267,7.267,0,0,1,799.964,727.144Z" fill="#f29e25"/><path d="M799.964,732.333H729.938a10.277,10.277,0,0,1-10.266-10.267v-4.855a10.279,10.279,0,0,1,10.266-10.268h70.026a10.279,10.279,0,0,1,10.266,10.268v4.855A10.277,10.277,0,0,1,799.964,732.333Zm-70.026-19.39a4.272,4.272,0,0,0-4.266,4.268v4.855a4.271,4.271,0,0,0,4.266,4.267h70.026a4.271,4.271,0,0,0,4.266-4.267v-4.855a4.272,4.272,0,0,0-4.266-4.268Z" fill="#474747"/><rect x="711.018" y="690.553" width="84.559" height="19.39" rx="7.267" fill="#fdb740"/><path d="M788.31,692.553H718.286a7.268,7.268,0,0,0-7.268,7.267v2.834a7.267,7.267,0,0,1,7.268-7.267H788.31a7.267,7.267,0,0,1,7.268,7.267V699.82A7.268,7.268,0,0,0,788.31,692.553Z" fill="#fff3c0" opacity="0.88"/><path d="M788.31,707.754H718.286a7.267,7.267,0,0,1-7.268-7.267v-2.833a7.268,7.268,0,0,0,7.268,7.267H788.31a7.268,7.268,0,0,0,7.268-7.267v2.833A7.267,7.267,0,0,1,788.31,707.754Z" fill="#f29e25"/><path d="M788.311,712.943H718.285a10.278,10.278,0,0,1-10.266-10.267V697.82a10.278,10.278,0,0,1,10.266-10.267h70.026a10.278,10.278,0,0,1,10.266,10.267v4.856A10.278,10.278,0,0,1,788.311,712.943Zm-70.026-19.39a4.271,4.271,0,0,0-4.266,4.267v4.856a4.271,4.271,0,0,0,4.266,4.267h70.026a4.271,4.271,0,0,0,4.266-4.267V697.82a4.271,4.271,0,0,0-4.266-4.267Z" fill="#474747"/><rect x="635.781" y="704.533" width="84.559" height="19.39" rx="7.267" transform="translate(-306.741 721.53) rotate(-46.913)" fill="#fdb740"/><path d="M696.358,683.4l-47.834,51.14a7.267,7.267,0,0,0,.343,10.272l2.069,1.935a7.266,7.266,0,0,1-.343-10.271l47.834-51.141a7.268,7.268,0,0,1,10.272-.343l-2.069-1.935A7.268,7.268,0,0,0,696.358,683.4Z" fill="#fff3c0" opacity="0.88"/><path d="M707.46,693.785l-47.835,51.14a7.267,7.267,0,0,1-10.272.343l-2.069-1.935a7.268,7.268,0,0,0,10.272-.343l47.835-51.141a7.267,7.267,0,0,0-.343-10.271l2.069,1.935A7.268,7.268,0,0,1,707.46,693.785Z" fill="#f29e25"/><path d="M655.914,751.719a10.23,10.23,0,0,1-7.011-2.764l-3.547-3.318a10.266,10.266,0,0,1-.485-14.511l47.835-51.141a10.283,10.283,0,0,1,14.513-.485l3.546,3.317a10.282,10.282,0,0,1,.485,14.512h0l-47.835,51.141A10.244,10.244,0,0,1,655.914,751.719Zm44.293-68.985a4.255,4.255,0,0,0-3.118,1.351l-47.835,51.14a4.265,4.265,0,0,0,.2,6.03L653,744.573a4.272,4.272,0,0,0,6.03-.2l47.835-51.141a4.269,4.269,0,0,0-.2-6.03l-3.546-3.317A4.248,4.248,0,0,0,700.207,682.734Zm8.852,12.546h0Z" fill="#474747"/></g></g></svg>